<svg width="260" height="260" viewBox="0 0 260 260" fill="none" xmlns="http://www.w3.org/2000/svg">
<g clip-path="url(#clip0_9_51)">
<path d="M44.3115 170.731C44.9919 172.092 45.9443 173.487 47.1689 174.916C48.4616 176.276 49.9243 177.535 51.5571 178.691C53.258 179.848 55.0949 180.8 57.0679 181.549C59.0409 182.229 61.0819 182.569 63.1909 182.569C66.1164 182.569 68.8717 181.447 71.457 179.202C74.0423 176.889 76.2874 173.827 78.1924 170.017C80.1654 166.139 81.6961 161.751 82.7847 156.853C83.8732 151.886 84.4175 146.75 84.4175 141.443C84.4175 138.177 84.1113 135.082 83.499 132.156C82.9548 129.231 82.0703 126.68 80.8457 124.502C79.6211 122.325 78.0223 120.59 76.0493 119.298C74.1444 118.005 71.8312 117.359 69.1099 117.359C64.6877 117.359 60.6396 118.652 56.9658 121.237C53.292 123.822 50.1965 127.122 47.6792 131.136L44.3115 170.731ZM6.34863 209C5.39616 209.205 4.64779 209.307 4.10352 209.307C1.92643 209.307 0.837891 208.014 0.837891 205.429C0.837891 205.089 0.837891 204.748 0.837891 204.408C0.905924 204.068 0.973958 203.694 1.04199 203.286L12.8799 58.8838C12.8799 58.6797 12.8799 58.4756 12.8799 58.2715C12.9479 58.0674 12.9819 57.8973 12.9819 57.7612C12.9819 57.4891 12.9479 57.251 12.8799 57.0469C12.8799 56.8428 12.8799 56.6727 12.8799 56.5366C12.8799 55.9243 13.084 55.4481 13.4922 55.1079C13.9684 54.6997 15.125 54.2575 16.9619 53.7812L45.6382 46.9438C46.3866 46.8078 47.373 46.5016 48.5977 46.0254C49.8223 45.5492 51.0129 45.311 52.1694 45.311C53.0539 45.311 53.8703 45.5151 54.6187 45.9233C55.4351 46.3315 55.8433 47.1139 55.8433 48.2705C55.8433 48.4066 55.8092 48.5426 55.7412 48.6787C55.7412 48.8148 55.7412 48.9508 55.7412 49.0869C55.6732 49.4271 55.5031 50.9238 55.231 53.5771C54.9588 56.2305 54.6527 59.4621 54.3125 63.272C53.9723 67.0138 53.5981 71.0618 53.1899 75.416C52.7817 79.7021 52.4076 83.7502 52.0674 87.5601C51.7272 91.3019 51.4211 94.4995 51.1489 97.1528C50.8768 99.8062 50.7067 101.303 50.6387 101.643C55.6051 98.3774 60.7417 95.6561 66.0483 93.479C71.355 91.2339 76.6616 90.1113 81.9683 90.1113C88.9757 90.1113 95.0308 91.5741 100.133 94.4995C105.236 97.3569 109.454 101.201 112.788 106.031C116.121 110.794 118.57 116.304 120.135 122.563C121.768 128.823 122.584 135.286 122.584 141.953C122.584 147.328 122.074 152.736 121.054 158.179C120.101 163.554 118.673 168.724 116.768 173.691C114.931 178.657 112.583 183.318 109.726 187.672C106.937 192.026 103.705 195.802 100.031 199C96.4255 202.197 92.3774 204.714 87.8872 206.551C83.397 208.388 78.5326 209.307 73.2939 209.307C66.9668 209.307 61.1839 207.912 55.9453 205.123C50.7067 202.333 45.8423 198.727 41.3521 194.305C41.216 195.938 41.1139 197.231 41.0459 198.183C40.9779 199.136 40.7397 199.884 40.3315 200.428C39.9914 200.904 39.4471 201.313 38.6987 201.653C37.9504 201.925 36.8278 202.231 35.3311 202.571C34.5827 202.775 33.256 203.116 31.3511 203.592C29.5142 204 27.269 204.476 24.6157 205.021C22.0304 205.633 19.139 206.279 15.9414 206.959C12.8118 207.64 9.61426 208.32 6.34863 209ZM259.128 97.9692C259.06 103.82 258.482 109.059 257.394 113.685C256.373 118.311 254.876 122.495 252.903 126.237C250.998 129.911 248.651 133.245 245.862 136.238C243.14 139.164 240.011 141.919 236.473 144.504C229.67 149.403 222.22 153.111 214.124 155.628C206.028 158.077 197.898 159.302 189.734 159.302C188.373 159.302 187.013 159.268 185.652 159.2C184.359 159.132 183.033 159.03 181.672 158.894L178.304 196.142L176.569 199.306C176.433 199.578 175.277 200.122 173.1 200.938C170.923 201.755 168.201 202.707 164.936 203.796L158.506 205.939C156.465 206.687 154.662 207.368 153.098 207.98C151.533 208.592 150.07 209.137 148.709 209.613C147.349 210.089 146.022 210.429 144.729 210.633C143.437 210.905 142.076 211.042 140.647 211.042C139.695 211.042 138.947 210.803 138.402 210.327C137.858 209.851 137.586 208.932 137.586 207.572L138.708 190.121C138.913 186.651 139.151 183.182 139.423 179.712C139.763 176.174 140.069 172.16 140.341 167.67L142.28 143.28C142.688 138.313 143.063 133.347 143.403 128.38C143.743 123.414 144.083 118.686 144.423 114.195C144.764 109.705 145.07 105.521 145.342 101.643C145.614 97.6971 145.852 94.2614 146.056 91.3359C142.382 92.1523 139.423 92.7646 137.178 93.1729C135.001 93.513 133.334 93.6831 132.177 93.6831C130.749 93.6831 130.034 93.0708 130.034 91.8462C130.987 88.5125 131.871 85.2469 132.688 82.0493C133.436 79.328 134.184 76.5386 134.933 73.6812C135.749 70.7557 136.429 68.3065 136.974 66.3335C137.314 65.1089 137.688 64.1904 138.096 63.5781C138.572 62.8978 139.151 62.3875 139.831 62.0474C140.579 61.6392 141.498 61.299 142.586 61.0269C143.743 60.6867 145.138 60.2445 146.771 59.7002C148.063 59.292 149.866 58.8498 152.179 58.3735C154.56 57.8293 157.248 57.319 160.241 56.8428C163.303 56.2985 166.602 55.7882 170.14 55.312C173.678 54.8358 177.25 54.4276 180.855 54.0874C184.529 53.6792 188.135 53.373 191.673 53.1689C195.211 52.8968 198.544 52.7607 201.674 52.7607C209.43 52.7607 216.777 53.4751 223.717 54.9038C230.656 56.3325 236.745 58.7817 241.984 62.2515C247.222 65.6532 251.373 70.2795 254.434 76.1304C257.564 81.9132 259.128 89.1929 259.128 97.9692ZM184.529 128.584C184.529 129.333 184.665 130.013 184.938 130.625C185.21 131.17 185.958 131.442 187.183 131.442C189.088 131.442 191.333 131.034 193.918 130.217C196.571 129.333 199.191 128.04 201.776 126.339C204.429 124.639 206.878 122.529 209.124 120.012C211.369 117.495 213.069 114.535 214.226 111.134C214.702 109.773 215.076 108.038 215.349 105.929C215.689 103.82 215.859 101.337 215.859 98.4795C215.859 93.7171 214.192 90.2134 210.858 87.9683C207.593 85.7231 203.307 84.6006 198 84.6006C197.116 84.6006 196.095 84.6686 194.938 84.8047C193.85 84.8727 192.795 85.0428 191.775 85.3149C190.822 85.5871 190.006 85.9272 189.326 86.3354C188.645 86.6756 188.271 87.1519 188.203 87.7642L187.999 90.0093C187.931 90.8937 187.795 92.3564 187.591 94.3975C187.387 96.3704 187.149 98.6496 186.876 101.235C186.672 103.82 186.434 106.542 186.162 109.399C185.958 112.256 185.72 114.978 185.448 117.563C185.244 120.148 185.04 122.427 184.835 124.4C184.699 126.373 184.597 127.768 184.529 128.584Z" fill="#5AF95A"/>
</g>
<defs>
<clipPath id="clip0_9_51">
<rect width="260" height="260" fill="white"/>
</clipPath>
</defs>
</svg>
